<svg version="1.2" xmlns="http://www.w3.org/2000/svg" viewBox="0 0 40 40" width="40" height="40">
	<style>
		.s0 { fill: #fefefe } 
	</style>
	<g id="&lt;Group&gt;">
		<path id="&lt;Path&gt;" class="s0" d="m24.9 12.92q0.06 0.06 0.14 0.12 0.51 0.38 1.01 0.87 0.49 0.49 0.85 0.99 0.06 0.08 0.12 0.14c0.54 0.54 1.42 0.54 1.96 0l5.75-5.76c0.3-0.3 0.7-0.42 1.09-0.39-0.78-0.56-1.73-0.89-2.76-0.89h-13.08z"/>
		<path id="&lt;Path&gt;" class="s0" d="m2.5 28.02l2.12-2.13 0.02 0.02 4.93-4.94-0.01-0.01 4.98-4.98q1.58-1.59 2.62-2.48c0.61-0.53 0.66-1.46 0.09-2.03l-3.47-3.47h-7.02c-2.63 0-4.76 2.13-4.76 4.76v14.16q0 0.78 0.23 1.48 0.1-0.21 0.27-0.38z"/>
		<path id="&lt;Path&gt;" class="s0" d="m23.74 18.7q-0.16-0.87-0.84-1.55-0.84-0.84-1.88-0.89-1.03-0.05-1.92 0.57-0.67 0.45-2.34 2.12l-0.52 0.53c-0.54 0.54-0.54 1.41 0 1.95l2.4 2.41c0.54 0.54 1.42 0.54 1.96 0l0.72-0.73q1.83-1.83 2.21-2.69 0.38-0.86 0.21-1.72z"/>
		<path id="&lt;Path&gt;" class="s0" d="m13.14 24.54c-0.54-0.54-1.41-0.54-1.95 0l-6.09 6.08q-0.34 0.33-0.78 0.39c0.72 0.43 1.55 0.68 2.44 0.68h13.53z"/>
		<path id="&lt;Path&gt;" class="s0" d="m37.62 11.42q-0.1 0.25-0.3 0.45l-9.83 9.84-0.06-0.06q-0.09 0.16-0.18 0.31-0.89 1.33-3 3.44l-1.04 1.05c-0.54 0.53-0.54 1.41 0 1.95l3.28 3.29h6.57c2.63 0 4.76-2.14 4.76-4.77v-14.16q0-0.7-0.2-1.34z"/>
	</g>
</svg>